<svg xmlns="http://www.w3.org/2000/svg" width="512" height="512"
 viewBox="0 0 512 512" role="img" aria-labelledby="title description">
<title id="title">LITOPENCODE — Ignition icon</title>
<desc id="description">Original geometric LitFamily ignition symbol, bespoke angular lettering, and ordered vector halftone. Ember orange, signal lime, warm white, and carbon navy. All lettering is outlined; no raster images or external resources.</desc>
<rect x="0" y="0" width="512" height="512" fill="#080D14" /><g transform="translate(44 36) scale(.69)"><g id="family-symbol" transform="translate(20 30) scale(1)"><path d="M0 42H76V438H195L151 510H0Z" fill="#FF6337" /><path d="M133 220V142L271 0H311V77Z" fill="#F2EFDF" /><path d="M101 323L247 180V270L101 413Z" fill="#F2EFDF" /><path d="M270 99H571V121L527 165H204Z" fill="#FF6337" /><rect x="518" y="119" width="17" height="17" fill="#080D14" /><circle cx="417" cy="30" r="49" fill="#D7F75B" /><rect x="263" y="190" width="65" height="71" fill="#D7F75B" /><rect x="334" y="190" width="190" height="71" fill="#F2EFDF" /><rect x="334" y="295" width="72" height="215" fill="#F2EFDF" /><path d="M479 293L529 335H494L479 351Z" fill="#F2EFDF" /><rect x="-11" y="145" width="98" height="4" fill="#080D14" /><rect x="-17" y="145" width="10" height="4" fill="#D7F75B" /><rect x="94" y="145" width="17" height="4" fill="#D7F75B" /><rect x="114" y="145" width="10" height="4" fill="#D7F75B" /><rect x="353" y="460" width="72" height="3" fill="#080D14" /><rect x="413" y="460" width="41" height="3" fill="#FF6337" /><rect x="458" y="460" width="9" height="3" fill="#FF6337" /></g></g><path d="M52 448L460 448" fill="none" stroke="#354139" stroke-width="1" /><g aria-label="LO"><path d="M130 0V730H220V82H550V0Z" fill="#D7F75B" transform="translate(52.000 483) scale(0.020000 -0.020000)"/><path d="M300 -10Q202 -10 145.0 47.0Q88 104 88 210V520Q88 626 145.0 683.0Q202 740 300 740Q398 740 455.0 683.0Q512 626 512 521V210Q512 104 455.0 47.0Q398 -10 300 -10ZM300 71Q359 71 390.5 104.5Q422 138 422 200V530Q422 592 390.5 625.5Q359 659 300 659Q242 659 210.0 625.5Q178 592 178 530V200Q178 138 210.0 104.5Q242 71 300 71Z" fill="#D7F75B" transform="translate(66.000 483) scale(0.020000 -0.020000)"/></g><rect x="437" y="466" width="23" height="6" fill="#FF6337" /></svg>
